<!DOCTYPE svg PUBLIC "-//W3C//DTD SVG 1.1//EN" "http://www.w3.org/Graphics/SVG/1.1/DTD/svg11.dtd">

<!-- Uploaded to: SVG Repo, www.svgrepo.com, Transformed by: SVG Repo Mixer Tools -->
<svg width="20px" height="20px" version="1.1" id="Capa_1" xmlns="http://www.w3.org/2000/svg" xmlns:xlink="http://www.w3.org/1999/xlink" viewBox="0 0 293.372 293.372" xml:space="preserve" fill="#000000" stroke="#000000" stroke-width="0.0029337200000000003">

<g id="SVGRepo_bgCarrier" stroke-width="0"/>

<g id="SVGRepo_tracerCarrier" stroke-linecap="round" stroke-linejoin="round"/>

<g id="SVGRepo_iconCarrier"> <g> <g> <g> <path style="fill:#f94343;" d="M146.694,293.372c-80.884,0-146.692-65.807-146.692-146.686S65.81,0,146.694,0 C227.568,0,293.37,65.807,293.37,146.686S227.568,293.372,146.694,293.372z M146.694,21.463 c-69.049,0-125.218,56.18-125.218,125.224c0,69.038,56.169,125.213,125.218,125.213c69.038,0,125.213-56.175,125.213-125.213 C271.907,77.643,215.732,21.463,146.694,21.463z"/> </g> <g> <path style="fill:#f94343;" d="M219.376,203.78H74.001c-5.929,0-10.731-4.808-10.731-10.731c0-5.934,4.803-10.737,10.731-10.737 h145.381c5.929,0,10.731,4.803,10.731,10.737C230.108,198.972,225.305,203.78,219.376,203.78z"/> </g> <g> <g> <path style="fill:#f94343;" d="M109.535,143.254H74.001c-5.929,0-10.731-4.808-10.731-10.737 c0-5.918,4.803-10.731,10.731-10.731h35.533c5.929,0,10.737,4.814,10.737,10.731 C120.271,138.446,115.463,143.254,109.535,143.254z"/> </g> <g> <path style="fill:#f94343;" d="M219.376,143.254h-35.533c-5.929,0-10.731-4.808-10.731-10.737 c0-5.918,4.803-10.731,10.731-10.731h35.533c5.929,0,10.731,4.814,10.731,10.731 C230.108,138.446,225.305,143.254,219.376,143.254z"/> </g> </g> </g> </g> </g>

</svg>