<svg width="30" height="40" viewBox="0 0 150 150" fill="none" xmlns="http://www.w3.org/2000/svg">
<circle cx="75" cy="75" r="74.5" fill="#FFF7FF" stroke="#F288CD"/>
<path d="M47.7191 106.882L41.9464 127.293C41.6303 126.769 41.4171 126.152 41.4171 125.442V105.465L87.9182 59.5822L47.7191 106.882ZM45.0299 129C45.8932 128.993 46.767 128.699 47.4811 127.978L60.4048 114.926L50.5575 109.955L45.0299 129ZM111.879 29.3763L22.9517 73.5519C15.044 77.4791 15.0085 88.8521 22.8913 92.8296L40.2626 101.599L107.009 35.7639C107.734 35.0502 108.842 34.9247 109.705 35.4555C110.863 36.1728 111.112 37.7652 110.227 38.8089L52.323 106.867L83.7263 122.648C89.9289 125.779 97.396 122.189 98.8952 115.353L116.909 33.3717C117.563 30.4343 114.554 28.0493 111.879 29.3763Z" fill="#FEBEE0" stroke="#E1D0F2" stroke-width="0.5"/>
</svg>
